# xmcd
#
# Track frame offsets:
#	150
#	15404
#	32249
#	44703
#	56456
#	70153
#	84484
#	94881
#	111263
#	128272
#	143184
#	158427
#	172991
#	197855
#	213642
#	227555
#	240707
#	256672
#	273806
#	304621
#	320596
#	340292
#
# Disc length: 4770 seconds
#
# Revision: 1
# Processed by: cddbd v1.5.2PL0 Copyright (c) Steve Scherf et al.
# Submitted via: audiograbber 1.83.01
#
DISCID=2a12a016
DTITLE=Glen Campbell - Live - Through The Years - Ultimate Collection 
DYEAR=2012
DGENRE=Country
TTITLE0=Rhinestone Cowboy
TTITLE1=Galveston
TTITLE2=By The Time I Get To Phoenix
TTITLE3=Try A Little Kindness
TTITLE4=Wichita Lineman
TTITLE5=Gone, Gone, Gone
TTITLE6=Walkin' In The Sun
TTITLE7=On A Good Night
TTITLE8=True Grit
TTITLE9=The Hand That Rocks The Cradle
TTITLE10=I Remember You
TTITLE11=I'm A One Woman Man
TTITLE12=The Orange Blossom Special
TTITLE13=The Highway Man
TTITLE14=Streets Of London
TTITLE15=A Thing Called Love
TTITLE16=Southern Nights
TTITLE17=William Tell Overture
TTITLE18=Beach Boys Medley - Good Vibrations, California Girls, Fun Fun Fun, I 
TTITLE18=Get Around, Surfin' USA
TTITLE19=Amazing Grace
TTITLE20=Mull Of Kintyre
TTITLE21=Gentle On My Mind
EXTD=
EXTT0=
EXTT1=
EXTT2=
EXTT3=
EXTT4=
EXTT5=
EXTT6=
EXTT7=
EXTT8=
EXTT9=
EXTT10=
EXTT11=
EXTT12=
EXTT13=
EXTT14=
EXTT15=
EXTT16=
EXTT17=
EXTT18=
EXTT19=
EXTT20=
EXTT21=
PLAYORDER=
